Coordinates
nRows=264
nColumns=2
inDegrees=yes
endheader
time	ankle_angle_r	
3.62601	 -5.325298	
3.65927	 -5.324613	
3.69254	 -5.319594	
3.72581	 -5.311446	
3.75907	 -5.306315	
3.79234	 -5.306525	
3.8256	 -5.308939	
3.85887	 -5.312992	
3.89214	 -5.317286	
3.9254	 -5.314895	
3.95867	 -5.305648	
3.99194	 -5.299321	
4.0252	 -5.302157	
4.05847	 -5.312087	
4.09173	 -5.322444	
4.125	 -5.327697	
4.15827	 -5.330752	
4.19153	 -5.337666	
4.2248	 -5.346598	
4.25806	 -5.351287	
4.29133	 -5.349129	
4.3246	 -5.343556	
4.35786	 -5.341104	
4.39113	 -5.341497	
4.4244	 -5.338163	
4.45766	 -5.332216	
4.49093	 -5.330999	
4.52419	 -5.333570	
4.55746	 -5.332052	
4.59073	 -5.326323	
4.62399	 -5.325828	
4.65726	 -5.332026	
4.69052	 -5.332264	
4.72379	 -5.321282	
4.75706	 -5.311269	
4.79032	 -5.312911	
4.82359	 -5.324400	
4.85685	 -5.337514	
4.89012	 -5.343024	
4.92339	 -5.338948	
4.95665	 -5.334652	
4.98992	 -5.337985	
5.02319	 -5.345865	
5.05645	 -5.351499	
5.08972	 -5.351513	
5.12298	 -5.347432	
5.15625	 -5.344114	
5.18952	 -5.343349	
5.22278	 -5.343548	
5.25605	 -5.345652	
5.28931	 -5.350464	
5.32258	 -5.356624	
5.35585	 -5.364107	
5.38911	 -5.371926	
5.42238	 -5.378111	
5.45565	 -5.382578	
5.48891	 -5.382851	
5.52218	 -5.373672	
5.55544	 -5.355132	
5.58871	 -5.334980	
5.62198	 -5.321875	
5.65524	 -5.318591	
5.68851	 -5.321548	
5.72177	 -5.324224	
5.75504	 -5.320934	
5.78831	 -5.312980	
5.82157	 -5.308429	
5.85484	 -5.310180	
5.8881	 -5.313586	
5.92137	 -5.316400	
5.95464	 -5.318099	
5.9879	 -5.316854	
6.02117	 -5.314006	
6.05444	 -5.310938	
6.0877	 -5.306575	
6.12097	 -5.303572	
6.15423	 -5.305436	
6.1875	 -5.309770	
6.22077	 -5.313030	
6.25403	 -5.313649	
6.2873	 -5.311298	
6.32056	 -5.312672	
6.35383	 -5.326472	
6.3871	 -5.348868	
6.42036	 -5.367311	
6.45363	 -5.374106	
6.4869	 -5.371442	
6.52016	 -5.367383	
6.55343	 -5.364781	
6.58669	 -5.359945	
6.61996	 -5.354967	
6.65323	 -5.357584	
6.68649	 -5.367752	
6.71976	 -5.376549	
6.75302	 -5.377790	
6.78629	 -5.374087	
6.81956	 -5.370265	
6.85282	 -5.364802	
6.88609	 -5.353922	
6.91935	 -5.341841	
6.95262	 -5.337950	
6.98589	 -5.344225	
7.01915	 -5.352435	
7.05242	 -5.353028	
7.08569	 -5.344911	
7.11895	 -5.335498	
7.15222	 -5.329722	
7.18548	 -5.325973	
7.21875	 -5.323146	
7.25202	 -5.323948	
7.28528	 -5.331057	
7.31855	 -5.340844	
7.35181	 -5.345550	
7.38508	 -5.345074	
7.41835	 -5.345570	
7.45161	 -5.347074	
7.48488	 -5.345087	
7.51815	 -5.338815	
7.55141	 -5.332427	
7.58468	 -5.333074	
7.61794	 -5.342149	
7.65121	 -5.348185	
7.68448	 -5.341316	
7.71774	 -5.327299	
7.75101	 -5.315928	
7.78427	 -5.311411	
7.81754	 -5.315171	
7.85081	 -5.324055	
7.88407	 -5.334223	
7.91734	 -5.345380	
7.9506	 -5.353720	
7.98387	 -5.355108	
8.01714	 -5.352755	
8.0504	 -5.350743	
8.08367	 -5.350242	
8.11694	 -5.350887	
8.1502	 -5.350267	
8.18347	 -5.349972	
8.21673	 -5.355156	
8.25	 -5.362595	
8.28327	 -5.364592	
8.31653	 -5.362335	
8.3498	 -5.361869	
8.38306	 -5.365409	
8.41633	 -5.370583	
8.4496	 -5.372765	
8.48286	 -5.370256	
8.51613	 -5.365617	
8.5494	 -5.363701	
8.58266	 -5.367644	
8.61593	 -5.372184	
8.64919	 -5.370349	
8.68246	 -5.365698	
8.71573	 -5.365810	
8.74899	 -5.371272	
8.78226	 -5.379150	
8.81552	 -5.385858	
8.84879	 -5.383648	
8.88206	 -5.369912	
8.91532	 -5.357423	
8.94859	 -5.359213	
8.98185	 -5.370388	
9.01512	 -5.374967	
9.04839	 -5.367792	
9.08165	 -5.362463	
9.11492	 -5.369389	
9.14819	 -5.378657	
9.18145	 -5.376894	
9.21472	 -5.363126	
9.24798	 -5.343522	
9.28125	 -5.326130	
9.31452	 -5.315751	
9.34778	 -5.309827	
9.38105	 -5.306335	
9.41431	 -5.306086	
9.44758	 -5.305005	
9.48085	 -5.297454	
9.51411	 -5.285261	
9.54738	 -5.278295	
9.58065	 -5.285275	
9.61391	 -5.299571	
9.64718	 -5.303344	
9.68044	 -5.290346	
9.71371	 -5.271027	
9.74698	 -5.259660	
9.78024	 -5.263074	
9.81351	 -5.273449	
9.84677	 -5.278269	
9.88004	 -5.276519	
9.91331	 -5.273449	
9.94657	 -5.271080	
9.97984	 -5.269245	
10.0131	 -5.265850	
10.0464	 -5.260153	
10.0796	 -5.256405	
10.1129	 -5.258328	
10.1462	 -5.266303	
10.1794	 -5.280486	
10.2127	 -5.296251	
10.246	 -5.303755	
10.2792	 -5.303094	
10.3125	 -5.305125	
10.3458	 -5.313853	
10.379	 -5.324447	
10.4123	 -5.332265	
10.4456	 -5.334778	
10.4788	 -5.333770	
10.5121	 -5.336277	
10.5454	 -5.346816	
10.5786	 -5.359289	
10.6119	 -5.361382	
10.6452	 -5.350285	
10.6784	 -5.337907	
10.7117	 -5.336324	
10.745	 -5.346610	
10.7782	 -5.361722	
10.8115	 -5.372526	
10.8448	 -5.372991	
10.878	 -5.363506	
10.9113	 -5.350456	
10.9446	 -5.341631	
10.9778	 -5.340571	
11.0111	 -5.346835	
11.0444	 -5.357684	
11.0776	 -5.366970	
11.1109	 -5.371911	
11.1442	 -5.377748	
11.1774	 -5.384393	
11.2107	 -5.383413	
11.244	 -5.375958	
11.2772	 -5.372103	
11.3105	 -5.373328	
11.3437	 -5.373549	
11.377	 -5.370816	
11.4103	 -5.369502	
11.4435	 -5.374301	
11.4768	 -5.382149	
11.5101	 -5.385383	
11.5433	 -5.383782	
11.5766	 -5.381293	
11.6099	 -5.375887	
11.6431	 -5.366947	
11.6764	 -5.360435	
11.7097	 -5.359027	
11.7429	 -5.362482	
11.7762	 -5.369633	
11.8095	 -5.372049	
11.8427	 -5.362754	
11.876	 -5.346817	
11.9093	 -5.335586	
11.9425	 -5.336750	
11.9758	 -5.346422	
12.0091	 -5.352379	
12.0423	 -5.348699	
12.0756	 -5.340894	
12.1089	 -5.336704	
12.1421	 -5.336989	
12.1754	 -5.335515	
12.2087	 -5.326742	
12.2419	 -5.312792	
12.2752	 -5.300633	
12.3085	 -5.294465	
12.3417	 -5.293488	
12.375	 -5.294816	
